<svg width="957" height="240" viewBox="0 0 957 240" fill="none" xmlns="http://www.w3.org/2000/svg">
<path d="M793 226L825.539 225.994C827.916 225.994 830.295 225.718 832.606 225.176L887.922 212.197C902.034 208.886 912 196.197 912 181.649V84.3079C912 73.0241 905.943 62.5633 896.193 57.0082L850.639 31.051C834.644 21.9364 819.372 28.295 807.772 42.755L740.403 16.37C722.791 9.47104 702.931 18.1337 695.944 35.8669C688.926 53.6796 697.634 73.8991 715.441 80.8752L752.094 89.7144L708.398 85.3887C689.431 85.3887 674 100.915 674 120C674 139.084 689.431 154.611 708.398 154.611H749.135C747.427 167.03 753.175 178.885 763.239 185.373C757.048 205.527 772.102 226 793 226ZM793 203.28C781.305 203.28 781.323 185.976 793 185.976C797.108 185.976 800.438 182.586 800.438 178.404V175.16C800.438 170.978 797.108 167.588 793 167.588H779.984C768.289 167.588 768.307 150.284 779.984 150.284H793C797.108 150.284 800.438 146.895 800.438 142.713V139.469C800.438 135.287 797.108 131.897 793 131.897H708.398C692.394 131.897 692.419 108.103 708.398 108.103H793C797.108 108.103 800.438 104.714 800.438 100.532V95.0276C800.438 93.4974 799.982 92.003 799.131 90.7416C798.28 89.4801 797.074 88.5107 795.671 87.9611L723.454 59.67C708.788 53.9252 717.21 31.6165 732.389 37.5629L809.809 67.8917C811.271 68.4643 812.873 68.5525 814.387 68.1436C815.901 67.7347 817.25 66.8496 818.241 65.6146L828.357 53.0048C831.063 49.6322 835.957 48.7156 839.741 50.8716L885.295 76.8292C888.004 78.3733 889.688 81.2387 889.688 84.3084V181.649C889.688 185.667 886.901 189.128 882.912 190.064L827.595 203.043C826.921 203.2 826.231 203.28 825.539 203.28H793V203.28Z" fill="#00290D"/>
<path d="M548.316 52.8005V47.7263C548.316 27.2832 529.684 11.7775 510.133 17.0017C498.348 -6.20137 466.868 -5.24043 455.882 17.3519C436.9 12.4014 417.99 27.1618 417.99 47.8126V106.936C408.815 103.454 398.076 104.56 389.443 111.094C375.945 121.311 372.984 140.781 382.753 154.759L437.917 233.704C439.278 235.651 441.075 237.238 443.16 238.333C445.245 239.429 447.556 240 449.901 240H552.394C559.247 240 565.193 235.177 566.732 228.369L580.611 166.983C582.197 159.962 582.999 152.781 583 145.577V83.9062C583 64.8656 566.666 50.16 548.316 52.8005ZM560.927 145.576C560.927 151.075 560.314 156.577 559.104 161.929L546.539 217.5H453.692L400.722 141.704C394.083 132.203 407.63 121.653 414.238 131.108L426.713 148.958C430.849 154.876 440.062 151.905 440.062 144.606V47.8126C440.062 35.7915 456.878 36.1829 456.878 48.1365V120C456.878 124.142 460.171 127.5 464.235 127.5H467.387C471.451 127.5 474.745 124.142 474.745 120V31.4063C474.745 19.3768 491.561 19.7767 491.561 31.7303V120C491.561 124.142 494.854 127.5 498.918 127.5H502.07C506.134 127.5 509.428 124.142 509.428 120V47.4024C509.428 35.3687 526.243 35.7727 526.243 47.7263V120C526.243 124.142 529.537 127.5 533.6 127.5H536.753C540.817 127.5 544.111 124.142 544.111 120V84.2301C544.111 71.9292 560.926 72.2114 560.926 83.9062V145.576H560.927Z" fill="#00290D"/>
<path d="M235.058 36.2655C224.645 20.2245 204.328 16.2613 189.125 25.1034C175.424 10.2118 152.335 10.3897 138.767 25.0929C116.845 12.3067 88.2337 27.485 87.3222 53.8672C65.8464 48.7371 45 65.1075 45 87.5511V114.502C45 129.996 51.638 144.766 63.2126 155.025L108.632 195.287C110.609 197.039 110.078 197.924 110.078 210.857C110.078 219.22 116.738 226 124.953 226H242.094C250.309 226 256.969 219.22 256.969 210.857C256.969 199.73 256.497 196.308 258.82 190.807L278.731 143.648C281.564 136.94 283 129.844 283 122.558V68.402C283 43.3978 257.752 26.4459 235.058 36.2655V36.2655ZM260.688 122.558C260.691 126.727 259.855 130.851 258.232 134.679L238.321 181.837C235.889 187.596 234.656 193.686 234.656 199.937V203.286H132.391V198.418C132.391 190.672 129.072 183.286 123.284 178.157L77.8645 137.895C71.1586 131.951 67.3125 123.424 67.3125 114.502V87.5506C67.3125 71.8361 91.4844 71.6804 91.4844 87.871V107.381C91.4843 108.463 91.7122 109.533 92.1527 110.518C92.5932 111.503 93.236 112.38 94.0378 113.091L97.2917 115.975C98.3681 116.929 99.6915 117.548 101.104 117.758C102.516 117.967 103.958 117.758 105.257 117.156C106.556 116.554 107.658 115.584 108.43 114.363C109.202 113.141 109.613 111.718 109.613 110.265V55.1019C109.613 39.4399 133.785 39.1427 133.785 55.4222V68.0812C133.785 72.2625 137.115 75.6526 141.223 75.6526H144.477C148.584 75.6526 151.914 72.2625 151.914 68.0812V48.6117C151.914 32.9322 176.086 32.6762 176.086 48.9321V68.0812C176.086 72.2625 179.416 75.6526 183.523 75.6526H186.777C190.885 75.6526 194.215 72.2625 194.215 68.0812V55.1014C194.215 39.4711 218.387 39.1162 218.387 55.4217V68.0807C218.387 72.262 221.716 75.6521 225.824 75.6521H229.078C233.186 75.6521 236.516 72.262 236.516 68.0807C236.516 52.3955 260.688 52.1745 260.688 68.4011V122.558V122.558Z" fill="#00290D"/>
</svg>
