<svg width="206" height="240" viewBox="0 0 206 240" fill="none" xmlns="http://www.w3.org/2000/svg">
<path d="M171.316 52.8005V47.7263C171.316 27.2832 152.684 11.7775 133.133 17.0017C121.348 -6.20137 89.8679 -5.24043 78.8818 17.3519C59.9004 12.4014 40.9902 27.1618 40.9902 47.8126V106.936C31.8154 103.454 21.0762 104.56 12.4431 111.094C-1.05501 121.311 -4.0158 140.781 5.75265 154.759L60.917 233.704C62.2778 235.651 64.0754 237.238 66.16 238.333C68.2446 239.429 70.5557 240 72.9009 240H175.394C182.247 240 188.193 235.177 189.732 228.369L203.611 166.983C205.197 159.962 205.999 152.781 206 145.577V83.9062C206 64.8656 189.666 50.16 171.316 52.8005ZM183.927 145.576C183.927 151.075 183.314 156.577 182.104 161.929L169.539 217.5H76.6921L23.7225 141.704C17.0831 132.203 30.6304 121.653 37.2385 131.108L49.7125 148.958C53.8486 154.876 63.0616 151.905 63.0616 144.606V47.8126C63.0616 35.7915 79.8778 36.1829 79.8778 48.1365V120C79.8778 124.142 83.1715 127.5 87.2349 127.5H90.3875C94.4509 127.5 97.7446 124.142 97.7446 120V31.4063C97.7446 19.3768 114.561 19.7767 114.561 31.7303V120C114.561 124.142 117.854 127.5 121.918 127.5H125.07C129.134 127.5 132.428 124.142 132.428 120V47.4024C132.428 35.3687 149.243 35.7727 149.243 47.7263V120C149.243 124.142 152.537 127.5 156.6 127.5H159.753C163.817 127.5 167.111 124.142 167.111 120V84.2301C167.111 71.9292 183.926 72.2114 183.926 83.9062V145.576H183.927Z" fill="#00290D"/>
</svg>
