<svg width="238" height="212" viewBox="0 0 238 212" fill="none" xmlns="http://www.w3.org/2000/svg">
<path d="M190.058 22.2655C179.645 6.22452 159.328 2.26135 144.125 11.1034C130.424 -3.78823 107.335 -3.6103 93.7669 11.0929C71.8449 -1.69331 43.2337 13.485 42.3222 39.8672C20.8464 34.7371 0 51.1075 0 73.5511V100.502C0 115.996 6.63797 130.766 18.2126 141.025L63.6325 181.287C65.609 183.039 65.0781 183.924 65.0781 196.857C65.0781 205.22 71.7379 212 79.9531 212H197.094C205.309 212 211.969 205.22 211.969 196.857C211.969 185.73 211.497 182.308 213.82 176.807L233.731 129.648C236.564 122.94 238 115.844 238 108.558V54.402C238 29.3978 212.752 12.4459 190.058 22.2655V22.2655ZM215.688 108.558C215.691 112.727 214.855 116.851 213.232 120.679L193.321 167.837C190.889 173.596 189.656 179.686 189.656 185.937V189.286H87.3906V184.418C87.3906 176.672 84.0716 169.286 78.2843 164.157L32.8645 123.895C26.1586 117.951 22.3125 109.424 22.3125 100.502V73.5506C22.3125 57.8361 46.4844 57.6804 46.4844 73.871V93.3807C46.4843 94.463 46.7122 95.5327 47.1527 96.5178C47.5932 97.5028 48.236 98.3803 49.0378 99.091L52.2917 101.975C53.3681 102.929 54.6915 103.548 56.1039 103.758C57.5163 103.967 58.9581 103.758 60.2571 103.156C61.5562 102.554 62.6576 101.584 63.4301 100.363C64.2025 99.1407 64.6132 97.7184 64.6133 96.2654V41.1019C64.6133 25.4399 88.7852 25.1427 88.7852 41.4222V54.0812C88.7852 58.2625 92.1153 61.6526 96.2227 61.6526H99.4766C103.584 61.6526 106.914 58.2625 106.914 54.0812V34.6117C106.914 18.9322 131.086 18.6762 131.086 34.9321V54.0812C131.086 58.2625 134.416 61.6526 138.523 61.6526H141.777C145.885 61.6526 149.215 58.2625 149.215 54.0812V41.1014C149.215 25.4711 173.387 25.1162 173.387 41.4217V54.0807C173.387 58.262 176.716 61.6521 180.824 61.6521H184.078C188.186 61.6521 191.516 58.262 191.516 54.0807C191.516 38.3955 215.688 38.1745 215.688 54.4011V108.558V108.558Z" fill="#00290D"/>
</svg>
