<svg width="238" height="212" viewBox="0 0 238 212" fill="none" xmlns="http://www.w3.org/2000/svg">
<path d="M119 212L151.539 211.994C153.916 211.994 156.295 211.718 158.606 211.176L213.922 198.197C228.034 194.886 238 182.197 238 167.649V70.3079C238 59.0241 231.943 48.5633 222.193 43.0082L176.639 17.051C160.644 7.93644 145.372 14.295 133.772 28.755L66.4029 2.37002C48.7914 -4.52896 28.9309 4.13369 21.9443 21.8669C14.9261 39.6796 23.6341 59.8991 41.4408 66.8752L78.0938 75.7144L34.3984 71.3887C15.431 71.3887 0 86.9154 0 106C0 125.084 15.431 140.611 34.3984 140.611H75.135C73.4267 153.03 79.1754 164.885 89.2388 171.373C83.0476 191.527 98.1025 212 119 212ZM119 189.28C107.305 189.28 107.323 171.976 119 171.976C123.108 171.976 126.438 168.586 126.438 164.404V161.16C126.438 156.978 123.108 153.588 119 153.588H105.984C94.2894 153.588 94.3066 136.284 105.984 136.284H119C123.108 136.284 126.438 132.895 126.438 128.713V125.469C126.438 121.287 123.108 117.897 119 117.897H34.3984C18.3939 117.897 18.4194 94.1035 34.3984 94.1035H119C123.108 94.1035 126.438 90.7139 126.438 86.5321V81.0276C126.438 79.4974 125.982 78.003 125.131 76.7416C124.28 75.4801 123.074 74.5107 121.671 73.9611L49.4543 45.67C34.7875 39.9252 43.2105 17.6165 58.3895 23.5629L135.809 53.8917C137.271 54.4643 138.873 54.5525 140.387 54.1436C141.901 53.7347 143.25 52.8496 144.241 51.6146L154.357 39.0048C157.063 35.6322 161.957 34.7156 165.741 36.8716L211.295 62.8292C214.004 64.3733 215.688 67.2387 215.688 70.3084V167.649C215.688 171.667 212.901 175.128 208.912 176.064L153.595 189.043C152.921 189.2 152.231 189.28 151.539 189.28H119V189.28Z" fill="#00290D"/>
</svg>
