<svg width="167" height="27" viewBox="0 0 167 27" fill="none" xmlns="http://www.w3.org/2000/svg">
<path d="M0.935547 26V7.54297H2.25391L2.48242 10.6016C4.33398 8.5625 6.39648 7.54297 8.66992 7.54297V9.01953C6.4668 9.01953 4.50391 10.0918 2.78125 12.2363V26H0.935547ZM11.0605 20.7793C11.0605 17.1113 13.498 15.2773 18.373 15.2773C20.0957 15.2773 21.9355 15.3945 23.8926 15.6289V13.3613C23.8926 10.5371 22.1172 9.125 18.5664 9.125C16.668 9.125 14.7227 9.41797 12.7305 10.0039V8.42188C14.7227 7.83594 16.668 7.54297 18.5664 7.54297C23.3477 7.54297 25.7383 9.45312 25.7383 13.2734V26H24.6133L24.1914 24.1719C21.8828 25.3906 19.6445 26 17.4766 26C13.1992 26 11.0605 24.2598 11.0605 20.7793ZM18.373 16.8594C14.7285 16.8594 12.9062 18.1484 12.9062 20.7266C12.9062 23.1875 14.4297 24.418 17.4766 24.418C19.7266 24.418 21.8652 23.8203 23.8926 22.625V17.2109C21.9355 16.9766 20.0957 16.8594 18.373 16.8594ZM31.3809 26V7.54297H32.6992L32.9277 9.89844C35.2832 8.32812 37.5918 7.54297 39.8535 7.54297C44.3418 7.54297 46.5859 9.48242 46.5859 13.3613V26H44.7402V13.3086C44.7402 10.5664 43.082 9.19531 39.7656 9.19531C37.5508 9.19531 35.3711 9.97461 33.2266 11.5332V26H31.3809ZM65.6758 10.25C63.8945 9.61719 62.043 9.30078 60.1211 9.30078C55.5859 9.30078 53.3184 11.627 53.3184 16.2793C53.3184 21.6582 55.5859 24.3477 60.1211 24.3477C62.043 24.3477 63.8945 24.1191 65.6758 23.6621V10.25ZM67.5215 24.8926C65.5176 25.6309 62.9922 26 59.9453 26C54.2148 26 51.3496 22.8008 51.3496 16.4023C51.3496 10.4961 54.2676 7.54297 60.1035 7.54297C61.9316 7.54297 63.7891 7.83594 65.6758 8.42188V0.863281H67.5215V24.8926ZM74.1133 16.7012C74.1133 21.9629 76.3691 24.5938 80.8809 24.5938C85.3926 24.5938 87.6484 21.9629 87.6484 16.7012C87.6484 11.5332 85.3926 8.94922 80.8809 8.94922C76.3691 8.94922 74.1133 11.5332 74.1133 16.7012ZM72.2676 16.7715C72.2676 10.502 75.1387 7.36719 80.8809 7.36719C86.623 7.36719 89.4941 10.502 89.4941 16.7715C89.4941 23.0293 86.623 26.1582 80.8809 26.1582C75.1621 26.1582 72.291 23.0293 72.2676 16.7715ZM94.2402 26V7.54297H95.5586L95.752 9.86328C97.6387 8.31641 99.6836 7.54297 101.887 7.54297C104.793 7.54297 106.674 8.38672 107.529 10.0742C109.65 8.38672 111.801 7.54297 113.98 7.54297C118.105 7.54297 120.168 9.58789 120.168 13.6777V26H118.322V13.6777C118.322 10.6895 116.869 9.19531 113.963 9.19531C111.643 9.19531 109.727 9.99219 108.215 11.5859V26H106.369V13.3789C106.369 10.5898 104.869 9.19531 101.869 9.19531C99.6895 9.19531 97.7617 9.99219 96.0859 11.5859V26H94.2402ZM128.184 0.863281V2.97266H125.986V0.863281H128.184ZM128.008 7.54297V26H126.162V7.54297H128.008ZM133.475 7.54297H147.186V9.125L135.461 24.418H146.834V26H133.123V24.418L144.988 9.125H133.475V7.54297ZM159.367 7.54297C164.418 7.54297 166.943 10.3379 166.943 15.9277C166.943 16.3262 166.932 16.7422 166.908 17.1758H152.898C152.898 22.0039 155.453 24.418 160.562 24.418C162.66 24.418 164.523 24.125 166.152 23.5391V25.1211C164.523 25.707 162.66 26 160.562 26C154.223 26 151.053 22.8535 151.053 16.5605C151.053 10.5488 153.824 7.54297 159.367 7.54297ZM152.898 15.5234H165.168C165.098 11.2344 163.164 9.08984 159.367 9.08984C155.266 9.08984 153.109 11.2344 152.898 15.5234Z" fill="#00290D"/>
</svg>
